<svg xmlns="http://www.w3.org/2000/svg" viewBox="0 0 512 512" role="img" aria-label="Стритстрим">
  <rect width="512" height="512" rx="112" fill="#ffffff"/>
  <g fill="none" stroke="#000000" stroke-width="42" stroke-linecap="round" stroke-linejoin="round">
    <path d="M170 301v-73c0-58 45-103 105-103h79c51 0 91 40 91 91v34h36c29 0 51 22 51 51v45c0 77-61 138-138 138H217c-77 0-138-61-138-138v-88c0-77 61-138 138-138h19"/>
    <path d="M342 210h-72c-42 0-75 33-75 75v52c0 38 30 68 68 68h116c47 0 85-38 85-85v-66"/>
    <path d="M339 289h-98v-3c0-24 18-42 42-42h59c19 0 34 15 34 34v28c0 28-22 50-50 50H233"/>
  </g>
</svg>
