<?xml version="1.0" standalone="no"?>
<!DOCTYPE svg PUBLIC "-//W3C//DTD SVG 20010904//EN"
 "http://www.w3.org/TR/2001/REC-SVG-20010904/DTD/svg10.dtd">
<svg version="1.0" xmlns="http://www.w3.org/2000/svg"
 width="1254.000000pt" height="1254.000000pt" viewBox="0 0 1254.000000 1254.000000"
 preserveAspectRatio="xMidYMid meet">

<g transform="translate(0.000000,1254.000000) scale(0.100000,-0.100000)"
fill="#000000" stroke="none">
<path d="M4675 9859 c-764 -74 -1458 -464 -1983 -1113 -285 -353 -501 -815
-597 -1280 -45 -221 -55 -352 -55 -737 0 -343 1 -360 24 -451 81 -319 286
-575 559 -697 126 -57 214 -73 430 -78 l197 -6 0 -216 c0 -252 11 -389 46
-560 64 -317 198 -624 394 -901 90 -127 124 -167 238 -283 185 -188 359 -315
592 -431 212 -105 366 -155 595 -193 102 -17 206 -18 1500 -18 1115 0 1408 3
1480 13 608 92 1147 356 1585 778 192 185 345 375 476 591 237 391 384 821
430 1261 23 218 15 939 -11 1032 -86 307 -309 567 -576 670 -127 49 -206 60
-424 60 l-192 0 -6 313 c-7 389 -27 532 -108 772 -105 310 -285 609 -503 834
-313 322 -671 524 -1096 618 l-125 27 -1390 2 c-764 1 -1430 -2 -1480 -7z
m2825 -633 c375 -57 765 -316 998 -662 98 -146 187 -346 231 -519 47 -185 51
-269 51 -1043 0 -893 -5 -957 -91 -1217 -145 -437 -481 -778 -900 -915 -187
-61 -177 -61 -1364 -58 l-1080 3 -63 34 c-75 41 -125 94 -161 170 -25 54 -26
64 -29 258 l-3 203 1158 2 1158 3 103 36 c141 50 248 117 352 219 129 127 199
248 252 436 23 79 23 81 23 849 0 765 0 771 -22 848 -12 43 -40 116 -62 163
-129 274 -392 480 -671 524 -55 8 -375 10 -1220 8 l-1145 -4 -123 -27 c-414
-92 -728 -262 -1012 -547 -356 -357 -571 -812 -619 -1314 -6 -60 -11 -215 -11
-344 l0 -234 -157 4 c-153 3 -160 4 -225 35 -84 39 -146 101 -186 184 -44 89
-52 144 -52 358 0 307 24 511 91 768 102 399 344 819 643 1116 377 376 815
594 1336 666 36 5 659 9 1385 10 1099 1 1336 -2 1415 -13z m-150 -1287 c80
-37 125 -81 162 -157 l33 -66 0 -206 0 -205 -1155 -5 -1155 -5 -85 -29 c-286
-96 -494 -292 -601 -569 -57 -150 -61 -206 -56 -982 3 -690 4 -701 26 -780 48
-172 146 -342 263 -457 155 -153 342 -244 548 -268 66 -8 447 -10 1225 -8
l1130 4 120 27 c880 194 1485 913 1564 1860 6 70 11 234 11 363 l0 234 158 0
c181 0 227 -10 307 -65 62 -42 104 -99 134 -178 20 -55 21 -75 21 -390 0 -435
-20 -604 -105 -876 -243 -785 -874 -1402 -1630 -1597 -259 -66 -205 -64 -1661
-64 -1410 0 -1389 -1 -1568 50 -164 46 -360 144 -507 255 -362 271 -623 732
-668 1179 -14 139 -15 1418 -1 1574 34 379 182 704 435 957 238 239 538 386
861 424 38 5 535 8 1104 7 l1035 -1 55 -26z m168 -1238 l34 -1 -4 -187 c-3
-179 -4 -191 -30 -244 -32 -69 -88 -127 -154 -160 l-49 -24 -1112 -3 -1113 -2
0 179 c0 160 2 187 21 238 41 107 152 191 269 203 40 4 1897 4 2138 1z"/>
</g>
</svg>
